<svg width="297" height="39" viewBox="0 0 297 39" fill="none" xmlns="http://www.w3.org/2000/svg">
<path d="M11.45 3.35C16.0167 3.35 19.5667 4.3 22.1 6.2C24.6333 8.1 25.9 10.9167 25.9 14.65C25.9 18.55 24.65 21.5 22.15 23.5C19.6833 25.4667 16.3667 26.45 12.2 26.45H8.45V38H0.25V3.35H11.45ZM11.5 20.55C13.4333 20.55 14.9 20.1 15.9 19.2C16.9333 18.2667 17.45 16.75 17.45 14.65C17.45 11.0167 15.4167 9.2 11.35 9.2H8.45V20.55H11.5ZM51.7168 24.2C51.7168 25.3 51.6668 26.25 51.5668 27.05H35.1168C35.3835 29.2833 36.0168 30.85 37.0168 31.75C38.0168 32.65 39.4001 33.1 41.1668 33.1C42.2335 33.1 43.2668 32.9167 44.2668 32.55C45.2668 32.15 46.3501 31.55 47.5168 30.75L50.7668 35.15C47.6668 37.6167 44.2168 38.85 40.4168 38.85C36.1168 38.85 32.8168 37.5833 30.5168 35.05C28.2168 32.5167 27.0668 29.1167 27.0668 24.85C27.0668 22.15 27.5501 19.7333 28.5168 17.6C29.4835 15.4333 30.9001 13.7333 32.7668 12.5C34.6335 11.2333 36.8668 10.6 39.4668 10.6C43.3001 10.6 46.3001 11.8 48.4668 14.2C50.6335 16.6 51.7168 19.9333 51.7168 24.2ZM43.9668 21.95C43.9001 17.8833 42.4668 15.85 39.6668 15.85C38.3001 15.85 37.2335 16.35 36.4668 17.35C35.7335 18.35 35.2835 20 35.1168 22.3H43.9668V21.95ZM79.9547 0.899998V38H72.9547L72.5547 34.9C70.688 37.5333 68.1714 38.85 65.0047 38.85C61.7047 38.85 59.188 37.5833 57.4547 35.05C55.7547 32.5167 54.9047 29.05 54.9047 24.65C54.9047 21.95 55.3547 19.5333 56.2547 17.4C57.1547 15.2667 58.4214 13.6 60.0547 12.4C61.7214 11.2 63.6214 10.6 65.7547 10.6C68.288 10.6 70.388 11.4333 72.0547 13.1V0.0499969L79.9547 0.899998ZM67.4547 33.05C69.288 33.05 70.8214 32.05 72.0547 30.05V18.6C71.4214 17.8333 70.7714 17.2667 70.1047 16.9C69.4714 16.5333 68.738 16.35 67.9047 16.35C66.438 16.35 65.2714 17.0333 64.4047 18.4C63.538 19.7667 63.1047 21.8667 63.1047 24.7C63.1047 27.8 63.4714 29.9667 64.2047 31.2C64.9714 32.4333 66.0547 33.05 67.4547 33.05ZM100.535 10.7C101.502 10.7 102.385 10.8167 103.185 11.05L101.935 18.7C100.935 18.4667 100.135 18.35 99.5352 18.35C97.9685 18.35 96.7685 18.9 95.9352 20C95.1352 21.0667 94.5018 22.6833 94.0352 24.85V38H86.1352V11.45H93.0352L93.6852 16.6C94.2852 14.7667 95.1852 13.3333 96.3852 12.3C97.6185 11.2333 99.0018 10.7 100.535 10.7ZM116.19 10.6C120.257 10.6 123.44 11.85 125.74 14.35C128.04 16.8167 129.19 20.2833 129.19 24.75C129.19 27.5833 128.657 30.0667 127.59 32.2C126.557 34.3 125.057 35.9333 123.09 37.1C121.157 38.2667 118.857 38.85 116.19 38.85C112.157 38.85 108.973 37.6167 106.64 35.15C104.34 32.65 103.19 29.1667 103.19 24.7C103.19 21.8667 103.707 19.4 104.74 17.3C105.807 15.1667 107.307 13.5167 109.24 12.35C111.207 11.1833 113.523 10.6 116.19 10.6ZM116.19 16.4C114.59 16.4 113.39 17.0833 112.59 18.45C111.79 19.7833 111.39 21.8667 111.39 24.7C111.39 27.6 111.773 29.7167 112.54 31.05C113.34 32.3833 114.557 33.05 116.19 33.05C117.79 33.05 118.99 32.3833 119.79 31.05C120.59 29.6833 120.99 27.5833 120.99 24.75C120.99 21.85 120.59 19.7333 119.79 18.4C119.023 17.0667 117.823 16.4 116.19 16.4ZM164.154 38L162.354 30.55H152.254L150.504 38H142.004L152.454 3.35H162.404L172.854 38H164.154ZM153.654 24.6H160.954L157.304 9.3L153.654 24.6ZM189.646 10.7C190.613 10.7 191.496 10.8167 192.296 11.05L191.046 18.7C190.046 18.4667 189.246 18.35 188.646 18.35C187.08 18.35 185.88 18.9 185.046 20C184.246 21.0667 183.613 22.6833 183.146 24.85V38H175.246V11.45H182.146L182.796 16.6C183.396 14.7667 184.296 13.3333 185.496 12.3C186.73 11.2333 188.113 10.7 189.646 10.7ZM209.715 10.7C210.682 10.7 211.565 10.8167 212.365 11.05L211.115 18.7C210.115 18.4667 209.315 18.35 208.715 18.35C207.148 18.35 205.948 18.9 205.115 20C204.315 21.0667 203.682 22.6833 203.215 24.85V38H195.315V11.45H202.215L202.865 16.6C203.465 14.7667 204.365 13.3333 205.565 12.3C206.798 11.2333 208.182 10.7 209.715 10.7ZM237.783 38H230.933L230.583 34.65C228.65 37.45 225.967 38.85 222.533 38.85C220.1 38.85 218.25 38.1167 216.983 36.65C215.75 35.1833 215.133 33.1333 215.133 30.5V11.45H223.033V29.5C223.033 30.8 223.233 31.7167 223.633 32.25C224.067 32.75 224.717 33 225.583 33C227.25 33 228.683 31.9667 229.883 29.9V11.45H237.783V38ZM267.796 0.899998V38H260.796L260.396 34.9C258.53 37.5333 256.013 38.85 252.846 38.85C249.546 38.85 247.03 37.5833 245.296 35.05C243.596 32.5167 242.746 29.05 242.746 24.65C242.746 21.95 243.196 19.5333 244.096 17.4C244.996 15.2667 246.263 13.6 247.896 12.4C249.563 11.2 251.463 10.6 253.596 10.6C256.13 10.6 258.23 11.4333 259.896 13.1V0.0499969L267.796 0.899998ZM255.296 33.05C257.13 33.05 258.663 32.05 259.896 30.05V18.6C259.263 17.8333 258.613 17.2667 257.946 16.9C257.313 16.5333 256.58 16.35 255.746 16.35C254.28 16.35 253.113 17.0333 252.246 18.4C251.38 19.7667 250.946 21.8667 250.946 24.7C250.946 27.8 251.313 29.9667 252.046 31.2C252.813 32.4333 253.896 33.05 255.296 33.05ZM295.077 30.3C295.077 31.3 295.21 32.0333 295.477 32.5C295.777 32.9667 296.244 33.3167 296.877 33.55L295.227 38.7C293.594 38.5667 292.26 38.2167 291.227 37.65C290.194 37.05 289.394 36.1167 288.827 34.85C287.094 37.5167 284.427 38.85 280.827 38.85C278.194 38.85 276.094 38.0833 274.527 36.55C272.96 35.0167 272.177 33.0167 272.177 30.55C272.177 27.65 273.244 25.4333 275.377 23.9C277.51 22.3667 280.594 21.6 284.627 21.6H287.327V20.45C287.327 18.8833 286.994 17.8167 286.327 17.25C285.66 16.65 284.494 16.35 282.827 16.35C281.96 16.35 280.91 16.4833 279.677 16.75C278.444 16.9833 277.177 17.3167 275.877 17.75L274.077 12.55C275.744 11.9167 277.444 11.4333 279.177 11.1C280.944 10.7667 282.577 10.6 284.077 10.6C287.877 10.6 290.66 11.3833 292.427 12.95C294.194 14.5167 295.077 16.8667 295.077 20V30.3ZM283.127 33.2C284.927 33.2 286.327 32.35 287.327 30.65V25.95H285.377C283.577 25.95 282.227 26.2667 281.327 26.9C280.46 27.5333 280.027 28.5167 280.027 29.85C280.027 30.9167 280.294 31.75 280.827 32.35C281.394 32.9167 282.16 33.2 283.127 33.2Z" fill="#141414"/>
</svg>
